<svg width="800" height="375" viewBox="0 0 800 375" xmlns="http://www.w3.org/2000/svg">

  <!-- Window -->
  <rect width="800" height="375" rx="10" fill="#111111"/>
  <rect width="800" height="375" rx="10" fill="none" stroke="#252525" stroke-width="1"/>

  <!-- Title bar -->
  <rect width="800" height="38" rx="10" fill="#191919"/>
  <rect y="28" width="800" height="10" fill="#191919"/>

  <!-- Muted dots -->
  <circle cx="22" cy="19" r="6" fill="#6b3a3a"/>
  <circle cx="42" cy="19" r="6" fill="#6b5a3a"/>
  <circle cx="62" cy="19" r="6" fill="#3a5c3a"/>

  <!-- Title -->
  <text x="370" y="24" text-anchor="middle" fill="#3a3a3a" font-family="'Courier New',Courier,monospace" font-size="11">bash  ·  hussain@portfolio</text>

  <!-- ── Title bar right: pixel art icons ── -->
  <line x1="694" y1="8" x2="694" y2="30" stroke="#252535" stroke-width="0.5"/>

  <!-- Gmail pixel icon (envelope with M) -->
  <rect x="698" y="12" width="14" height="12" rx="1" fill="#6b3232"/>
  <rect x="699" y="13" width="12" height="10" fill="#8a4848"/>
  <rect x="699" y="13" width="2" height="8" fill="#4a1e1e"/>
  <rect x="709" y="13" width="2" height="8" fill="#4a1e1e"/>
  <rect x="700" y="14" width="2" height="3" fill="#4a1e1e"/>
  <rect x="708" y="14" width="2" height="3" fill="#4a1e1e"/>
  <rect x="702" y="15" width="2" height="2" fill="#4a1e1e"/>
  <rect x="706" y="15" width="2" height="2" fill="#4a1e1e"/>
  <rect x="704" y="16" width="2" height="2" fill="#4a1e1e"/>

  <!-- GitHub octocat pixel icon -->
  <circle cx="729" cy="19" r="8" fill="#141420"/>
  <circle cx="729" cy="20" r="6" fill="#8880a8"/>
  <rect x="723" y="12" width="3" height="5" rx="1" fill="#8880a8"/>
  <rect x="733" y="12" width="3" height="5" rx="1" fill="#8880a8"/>
  <circle cx="726" cy="20" r="1.2" fill="#141420"/>
  <circle cx="732" cy="20" r="1.2" fill="#141420"/>
  <rect x="734" y="24" width="3" height="4" rx="1.5" fill="#8880a8"/>

  <!-- Claude frog pixel icon -->
  <circle cx="753" cy="16" r="3.5" fill="#5a8a6a"/>
  <circle cx="763" cy="16" r="3.5" fill="#5a8a6a"/>
  <ellipse cx="758" cy="22" rx="9" ry="7" fill="#5a8a6a"/>
  <circle cx="753" cy="16" r="2" fill="#c2a87a"/>
  <circle cx="763" cy="16" r="2" fill="#c2a87a"/>
  <circle cx="753" cy="16" r="1" fill="#1a1a20"/>
  <circle cx="763" cy="16" r="1" fill="#1a1a20"/>
  <path d="M752,24 Q758,28 764,24" stroke="#3a6a4a" stroke-width="1.5" fill="none" stroke-linecap="round"/>

  <!-- ── whoami ── -->
  <text y="68" font-family="'Courier New',Courier,monospace" font-size="14">
    <tspan x="22" fill="#6a8aaa">hussain@ai</tspan>
    <tspan fill="#333333">:</tspan>
    <tspan fill="#4a5a6a">~</tspan>
    <tspan fill="#3a3a3a"> $ </tspan>
    <tspan fill="#888888">whoami</tspan>
  </text>

  <text y="89" font-family="'Courier New',Courier,monospace" font-size="13.5">
    <tspan x="22" fill="#c2a87a">Hussain Mansoor</tspan>
    <tspan fill="#2e2e2e">  ·  </tspan>
    <tspan fill="#7a9aaa">AI / ML Engineer</tspan>
    <tspan fill="#2e2e2e">  ·  </tspan>
    <tspan fill="#666666">Pakistan</tspan>
  </text>

  <!-- ── cat about ── -->
  <text y="120" font-family="'Courier New',Courier,monospace" font-size="14">
    <tspan x="22" fill="#6a8aaa">hussain@ai</tspan>
    <tspan fill="#333333">:</tspan>
    <tspan fill="#4a5a6a">~</tspan>
    <tspan fill="#3a3a3a"> $ </tspan>
    <tspan fill="#888888">cat about.txt</tspan>
  </text>

  <text y="140" font-family="'Courier New',Courier,monospace" font-size="13">
    <tspan x="22" fill="#3a3a3a">›  </tspan>
    <tspan fill="#666666">NLP  ·  Computer Vision  ·  Generative AI  ·  Reinforcement Learning</tspan>
  </text>

  <!-- ── ls skills ── -->
  <text y="170" font-family="'Courier New',Courier,monospace" font-size="14">
    <tspan x="22" fill="#6a8aaa">hussain@ai</tspan>
    <tspan fill="#333333">:</tspan>
    <tspan fill="#4a5a6a">~</tspan>
    <tspan fill="#3a3a3a"> $ </tspan>
    <tspan fill="#888888">ls skills/</tspan>
  </text>

  <text y="190" font-family="'Courier New',Courier,monospace" font-size="13">
    <tspan x="22" fill="#7aaa88">Python    </tspan>
    <tspan fill="#9a8fbb">TensorFlow    </tspan>
    <tspan fill="#7a9ab5">PyTorch    </tspan>
    <tspan fill="#9a8fbb">Scikit-learn    </tspan>
    <tspan fill="#7a9aaa">LangChain</tspan>
  </text>
  <text y="208" font-family="'Courier New',Courier,monospace" font-size="13">
    <tspan x="22" fill="#bba07a">HuggingFace    </tspan>
    <tspan fill="#7aaa88">OpenCV    </tspan>
    <tspan fill="#7a9ab5">FastAPI    </tspan>
    <tspan fill="#9a8fbb">Jupyter    </tspan>
    <tspan fill="#7a9aaa">OpenAI</tspan>
  </text>

  <!-- ── git log ── -->
  <text y="239" font-family="'Courier New',Courier,monospace" font-size="14">
    <tspan x="22" fill="#6a8aaa">hussain@ai</tspan>
    <tspan fill="#333333">:</tspan>
    <tspan fill="#4a5a6a">~</tspan>
    <tspan fill="#3a3a3a"> $ </tspan>
    <tspan fill="#888888">git log --oneline projects/</tspan>
  </text>

  <text y="259" font-family="'Courier New',Courier,monospace" font-size="12.5">
    <tspan x="22" fill="#9a8fbb">a3f8c2b  </tspan>
    <tspan fill="#999999">AI-ProctorSense           </tspan>
    <tspan fill="#484848">motion detection for exam proctoring</tspan>
  </text>
  <text y="277" font-family="'Courier New',Courier,monospace" font-size="12.5">
    <tspan x="22" fill="#9a8fbb">d1e9f4a  </tspan>
    <tspan fill="#999999">Mental-Health-GPT         </tspan>
    <tspan fill="#484848">transformer-based evaluation model</tspan>
  </text>
  <text y="295" font-family="'Courier New',Courier,monospace" font-size="12.5">
    <tspan x="22" fill="#9a8fbb">7c2b1d9  </tspan>
    <tspan fill="#999999">Music-Generation-AI       </tspan>
    <tspan fill="#484848">LSTM deep learning on MIDI files</tspan>
  </text>
  <text y="313" font-family="'Courier New',Courier,monospace" font-size="12.5">
    <tspan x="22" fill="#9a8fbb">e5a3f1c  </tspan>
    <tspan fill="#999999">FrozenLake-RL             </tspan>
    <tspan fill="#484848">policy gradient reinforcement learning</tspan>
  </text>

  <!-- ── final prompt + cursor ── -->
  <text y="346" font-family="'Courier New',Courier,monospace" font-size="14">
    <tspan x="22" fill="#6a8aaa">hussain@ai</tspan>
    <tspan fill="#333333">:</tspan>
    <tspan fill="#4a5a6a">~</tspan>
    <tspan fill="#3a3a3a"> $ </tspan>
  </text>

  <rect x="145" y="332" width="9" height="16" fill="#6a8aaa">
    <animate attributeName="opacity" values="1;1;0;0;1" dur="1.4s" repeatCount="indefinite"/>
  </rect>

  <!-- ════════════════════════════════════════ -->
  <!-- PIXEL ART: night scene (bottom-right)   -->
  <!-- ════════════════════════════════════════ -->

  <!-- Scene card frame -->
  <rect x="651" y="243" width="126" height="122" rx="5" fill="#08080d" stroke="#21212e" stroke-width="1"/>

  <!-- Night sky -->
  <rect x="653" y="245" width="122" height="66" fill="#070919"/>

  <!-- Moon crescent (full disc then dark shadow overlay) -->
  <ellipse cx="682" cy="266" rx="16" ry="15" fill="#c4b870"/>
  <ellipse cx="689" cy="264" rx="14" ry="13" fill="#050710"/>

  <!-- Stars -->
  <circle cx="713" cy="249" r="1.2" fill="#3a3a2c"/>
  <circle cx="730" cy="254" r="1"   fill="#3a3a2c"/>
  <circle cx="749" cy="249" r="1.5" fill="#3a3a2c"/>
  <circle cx="762" cy="257" r="1"   fill="#3a3a2c"/>
  <circle cx="744" cy="265" r="1"   fill="#3a3a2c"/>
  <circle cx="770" cy="251" r="1"   fill="#3a3a2c"/>
  <circle cx="723" cy="261" r="1.2" fill="#3a3a2c"/>
  <circle cx="774" cy="262" r="1"   fill="#3a3a2c"/>
  <circle cx="757" cy="270" r="1"   fill="#3a3a2c"/>

  <!-- Building wall -->
  <rect x="653" y="311" width="122" height="52" fill="#0f0f1a"/>

  <!-- Window outer frame (dark border) -->
  <rect x="657" y="283" width="76" height="48" rx="1" fill="#0a0a16"/>

  <!-- Window warm interior glow (layered depth) -->
  <rect x="660" y="286" width="70" height="42" fill="#58300e"/>
  <rect x="663" y="288" width="64" height="38" fill="#7a4616"/>
  <rect x="666" y="290" width="58" height="33" fill="#96581e"/>
  <rect x="669" y="292" width="52" height="27" fill="#ae6a26"/>
  <rect x="672" y="294" width="46" height="21" fill="#c47c30"/>

  <!-- Student silhouette (against warm glow) -->
  <!-- head, hunched slightly forward -->
  <ellipse cx="707" cy="299" rx="7" ry="7" fill="#080810"/>
  <!-- torso -->
  <rect x="701" y="306" width="14" height="10" rx="2" fill="#080810"/>
  <!-- arms resting on desk -->
  <rect x="697" y="312" width="26" height="4" fill="#080810"/>

  <!-- Desk surface / windowsill bottom -->
  <rect x="660" y="317" width="70" height="5" fill="#180c06"/>
  <rect x="660" y="322" width="70" height="4" fill="#110806"/>

  <!-- Desk lamp (right side of window) -->
  <rect x="720" y="294" width="2" height="23" fill="#241206"/>
  <rect x="717" y="290" width="8" height="5" rx="2" fill="#b08840"/>
  <rect x="715" y="295" width="12" height="4" fill="#58300e" opacity="0.8"/>

  <!-- Window exterior ledge -->
  <rect x="655" y="331" width="80" height="4" rx="1" fill="#1a1a28"/>

  <!-- ════════════════════════════════════════ -->

  <!-- Bottom accent -->
  <rect x="0" y="371" width="800" height="4" rx="2" fill="url(#lg)"/>
  <defs>
    <linearGradient id="lg" x1="0%" y1="0%" x2="100%" y2="0%">
      <stop offset="0%"   stop-color="#111111"/>
      <stop offset="30%"  stop-color="#2a3a4a"/>
      <stop offset="65%"  stop-color="#3a2a4a"/>
      <stop offset="100%" stop-color="#111111"/>
    </linearGradient>
  </defs>

</svg>
